<?xml version="1.0" standalone="no"?>
<!DOCTYPE svg PUBLIC "-//W3C//DTD SVG 20010904//EN"
 "http://www.w3.org/TR/2001/REC-SVG-20010904/DTD/svg10.dtd">
<svg version="1.0" xmlns="http://www.w3.org/2000/svg"
 width="1000.000000pt" height="1000.000000pt" viewBox="0 0 1000.000000 1000.000000"
 preserveAspectRatio="xMidYMid meet">
<metadata>
Created by potrace 1.14, written by Peter Selinger 2001-2017
</metadata>
<g transform="translate(0.000000,1000.000000) scale(0.100000,-0.100000)"
fill="#000000" stroke="none">
<path d="M5225 9910 c-45 -9 -136 -50 -205 -91 -25 -15 -70 -37 -101 -48 -30
-12 -70 -36 -88 -55 -26 -26 -39 -33 -60 -30 -62 11 -62 9 -26 82 47 98 51
112 26 107 -35 -7 -106 -62 -158 -122 -95 -112 -133 -192 -127 -268 9 -116 6
-143 -20 -198 -14 -31 -26 -60 -26 -64 0 -5 -22 -34 -49 -64 -52 -58 -56 -71
-63 -217 -1 -24 -7 -47 -14 -53 -9 -7 -9 -18 1 -46 14 -39 11 -86 -6 -91 -5
-2 -6 -8 -3 -13 3 -6 -1 -24 -9 -42 -64 -137 -63 -196 5 -260 l30 -29 -403
-133 c-222 -74 -417 -139 -434 -145 -16 -6 -37 -13 -45 -15 -47 -12 -1110
-368 -1137 -380 -17 -8 -34 -15 -38 -15 -11 0 -186 -89 -240 -123 -92 -57
-210 -154 -287 -235 -139 -149 -264 -366 -292 -508 -9 -43 -52 -257 -96 -474
-44 -217 -92 -451 -106 -520 -14 -69 -27 -134 -29 -145 -3 -11 -8 -36 -11 -55
-4 -19 -9 -44 -11 -55 -4 -22 -12 -58 -18 -90 -3 -17 -86 -423 -99 -490 -3
-11 -14 -67 -26 -125 -12 -58 -24 -118 -27 -135 -2 -16 -11 -61 -20 -100 -8
-38 -16 -79 -19 -90 -7 -35 -54 -269 -59 -295 -3 -14 -9 -47 -15 -75 -6 -27
-12 -59 -14 -70 -2 -11 -16 -76 -30 -145 -13 -69 -27 -136 -30 -150 -2 -14
-12 -59 -21 -100 -23 -110 -20 -328 8 -470 13 -67 41 -166 48 -174 5 -6 9 -16
9 -24 0 -32 74 -178 146 -287 60 -91 105 -140 218 -240 44 -39 84 -74 90 -80
6 -5 49 -44 96 -85 47 -41 90 -79 96 -85 14 -13 151 -135 174 -155 9 -8 50
-44 90 -80 90 -80 92 -82 170 -150 35 -30 70 -62 79 -70 9 -9 52 -47 96 -85
44 -39 89 -79 101 -90 11 -11 54 -49 94 -85 41 -36 78 -70 84 -75 6 -6 49 -44
96 -85 46 -41 105 -93 130 -116 41 -37 111 -99 320 -284 40 -36 78 -70 84 -75
6 -6 47 -41 91 -79 44 -38 135 -124 202 -191 191 -190 362 -299 589 -374 172
-58 289 -76 474 -75 147 1 245 17 363 60 117 42 222 79 387 132 1069 348 1973
642 2075 677 39 13 151 49 250 81 326 103 500 204 688 398 198 204 327 483
372 801 6 41 31 170 46 240 16 76 19 89 25 129 3 22 7 43 9 47 2 3 6 19 9 35
3 16 17 84 31 149 14 66 41 194 60 285 19 91 44 208 55 260 11 52 23 109 26
125 3 17 9 46 14 65 5 19 11 49 14 65 3 17 7 41 10 55 3 14 10 48 16 75 6 28
13 61 16 75 3 14 7 36 10 50 4 20 79 375 100 475 2 11 13 65 24 120 22 107 27
132 35 167 3 13 10 46 15 73 11 56 10 51 42 195 19 91 22 134 23 325 0 210 -3
251 -27 355 -5 25 -12 56 -14 69 -10 50 -77 218 -116 289 -80 145 -178 263
-338 404 -145 127 -162 142 -174 153 -6 6 -49 44 -96 85 -47 41 -90 80 -96 85
-12 11 -111 98 -258 229 -56 49 -135 119 -176 156 -73 65 -120 106 -189 166
-18 16 -43 38 -55 49 -12 11 -53 48 -92 81 -109 97 -375 333 -414 368 -19 17
-94 83 -165 146 -72 63 -135 119 -141 125 -6 5 -44 39 -85 75 -40 36 -98 89
-128 118 -80 75 -182 152 -286 215 -83 50 -90 57 -100 98 -15 55 -46 117 -81
158 -20 24 -25 38 -20 59 26 108 29 94 -46 208 l-69 104 21 31 22 30 33 -38
c39 -46 91 -59 79 -20 -28 95 -88 237 -115 276 -37 56 -60 72 -109 80 -24 5
-36 12 -38 26 -10 62 -52 96 -124 101 -70 4 -133 38 -168 89 -17 24 -30 51
-30 59 0 10 -9 16 -24 16 -33 0 -86 20 -86 33 0 5 -8 3 -18 -6 -29 -27 -49
-20 -73 23 -24 43 -31 44 -104 30z"/>
<path d="M8108 44 c-6 -5 -43 -13 -93 -19 -11 -1 -20 -3 -20 -4 0 -2 -8 -4
-18 -6 -46 -9 -24 -15 50 -15 75 0 81 2 86 22 6 23 4 32 -5 22z"/>
</g>
</svg>
